<svg width="702" height="583" viewBox="0 0 702 583" fill="none" xmlns="http://www.w3.org/2000/svg">
<path d="M692 231.5C692 330.627 677.944 415.159 640.33 474.673C603.275 533.303 542.481 569 445 569C416.657 569 387.041 569.794 357.535 570.585C335.001 571.189 312.531 571.792 290.74 572.038C239.782 572.612 191.257 571.288 149.193 563.916C107.055 556.53 72.516 543.257 48.5586 520.813C24.9494 498.696 10.5 466.614 10.5 419C10.5 319.099 13.8969 216.176 41.6363 138.342C55.4376 99.6165 75.0378 67.7993 102.629 45.6519C130.08 23.6161 166.251 10.5 214.5 10.5C314.628 10.5 435.15 18.4222 530.321 50.7045C577.864 66.8311 618.36 88.8026 646.875 118.251C675.157 147.459 692 184.35 692 231.5Z" fill="#BEBEBE" stroke="black" stroke-width="20"/>
</svg>
